<mxfile host="65bd71144e">
    <diagram id="Gp4b1td-Q_GJ732V_lQb" name="Page-1">
        <mxGraphModel dx="1058" dy="593" grid="1" gridSize="10" guides="1" tooltips="1" connect="1" arrows="1" fold="1" page="1" pageScale="1" pageWidth="850" pageHeight="1100" math="0" shadow="0">
            <root>
                <mxCell id="0"/>
                <mxCell id="1" parent="0"/>
                <mxCell id="7" value="" style="group" parent="1" vertex="1" connectable="0">
                    <mxGeometry x="90" y="310" width="220" height="135" as="geometry"/>
                </mxCell>
                <mxCell id="6" value="AHB Slave" style="rounded=0;whiteSpace=wrap;html=1;verticalAlign=top;" parent="7" vertex="1">
                    <mxGeometry y="40" width="220" height="95" as="geometry"/>
                </mxCell>
                <mxCell id="3" value="ahbsi" style="rounded=0;whiteSpace=wrap;html=1;" parent="7" vertex="1">
                    <mxGeometry y="90" width="80" height="30" as="geometry"/>
                </mxCell>
                <mxCell id="4" value="ahbso" style="rounded=0;whiteSpace=wrap;html=1;" parent="7" vertex="1">
                    <mxGeometry x="140" y="90" width="80" height="30" as="geometry"/>
                </mxCell>
                <mxCell id="5" value="ahbrom128" style="text;html=1;strokeColor=none;fillColor=none;align=center;verticalAlign=middle;whiteSpace=wrap;rounded=0;" parent="7" vertex="1">
                    <mxGeometry x="70" y="10" width="60" height="30" as="geometry"/>
                </mxCell>
                <mxCell id="8" value="" style="rounded=0;whiteSpace=wrap;html=1;" parent="1" vertex="1">
                    <mxGeometry x="560" y="140" width="260" height="480" as="geometry"/>
                </mxCell>
                <mxCell id="9" value="noelvcore" style="text;html=1;strokeColor=none;fillColor=none;align=center;verticalAlign=middle;whiteSpace=wrap;rounded=0;" parent="1" vertex="1">
                    <mxGeometry x="640" y="100" width="60" height="30" as="geometry"/>
                </mxCell>
                <mxCell id="11" value="rom_ahbso1" style="rounded=0;whiteSpace=wrap;html=1;" parent="1" vertex="1">
                    <mxGeometry x="560" y="362.5" width="80" height="30" as="geometry"/>
                </mxCell>
                <mxCell id="12" value="" style="endArrow=none;html=1;exitX=1;exitY=0.5;exitDx=0;exitDy=0;entryX=0;entryY=0.5;entryDx=0;entryDy=0;strokeWidth=2;fillColor=#e6d0de;gradientColor=#d5739d;strokeColor=#996185;" parent="1" source="4" target="11" edge="1">
                    <mxGeometry width="50" height="50" relative="1" as="geometry">
                        <mxPoint x="400" y="340" as="sourcePoint"/>
                        <mxPoint x="450" y="290" as="targetPoint"/>
                    </mxGeometry>
                </mxCell>
                <mxCell id="14" value="eth_apbo" style="rounded=0;whiteSpace=wrap;html=1;" parent="1" vertex="1">
                    <mxGeometry x="560" y="480" width="80" height="30" as="geometry"/>
                </mxCell>
                <mxCell id="15" value="eth_apbi" style="rounded=0;whiteSpace=wrap;html=1;" parent="1" vertex="1">
                    <mxGeometry x="560" y="255" width="80" height="30" as="geometry"/>
                </mxCell>
                <mxCell id="16" value="" style="group" parent="1" vertex="1" connectable="0">
                    <mxGeometry x="80" y="60" width="220" height="210" as="geometry"/>
                </mxCell>
                <mxCell id="17" value="SGMII" style="rounded=0;whiteSpace=wrap;html=1;verticalAlign=top;" parent="16" vertex="1">
                    <mxGeometry y="62.22222222222222" width="220" height="147.77777777777777" as="geometry"/>
                </mxCell>
                <mxCell id="18" value="gmiio" style="rounded=0;whiteSpace=wrap;html=1;" parent="16" vertex="1">
                    <mxGeometry y="93.33333333333333" width="80" height="46.666666666666664" as="geometry"/>
                </mxCell>
                <mxCell id="19" value="apbi" style="rounded=0;whiteSpace=wrap;html=1;" parent="16" vertex="1">
                    <mxGeometry x="160" y="93.33" width="60" height="20" as="geometry"/>
                </mxCell>
                <mxCell id="53" value="gmiii" style="rounded=0;whiteSpace=wrap;html=1;" vertex="1" parent="16">
                    <mxGeometry x="160" y="150" width="60" height="20" as="geometry"/>
                </mxCell>
                <mxCell id="21" value="" style="endArrow=none;html=1;exitX=1;exitY=0.5;exitDx=0;exitDy=0;entryX=0;entryY=0.5;entryDx=0;entryDy=0;edgeStyle=orthogonalEdgeStyle;" parent="1" source="19" target="15" edge="1">
                    <mxGeometry width="50" height="50" relative="1" as="geometry">
                        <mxPoint x="320" y="335" as="sourcePoint"/>
                        <mxPoint x="570" y="335" as="targetPoint"/>
                    </mxGeometry>
                </mxCell>
                <mxCell id="22" value="rom_ahbsi1" style="rounded=0;whiteSpace=wrap;html=1;" parent="1" vertex="1">
                    <mxGeometry x="740" y="320" width="80" height="30" as="geometry"/>
                </mxCell>
                <mxCell id="23" value="" style="endArrow=none;html=1;exitX=0;exitY=0.5;exitDx=0;exitDy=0;entryX=1;entryY=0.5;entryDx=0;entryDy=0;edgeStyle=orthogonalEdgeStyle;fillColor=#e3c800;strokeColor=#B09500;strokeWidth=3;" parent="1" source="3" target="22" edge="1">
                    <mxGeometry width="50" height="50" relative="1" as="geometry">
                        <mxPoint x="320" y="335" as="sourcePoint"/>
                        <mxPoint x="570" y="335" as="targetPoint"/>
                        <Array as="points">
                            <mxPoint x="60" y="415"/>
                            <mxPoint x="60" y="325"/>
                            <mxPoint x="20" y="325"/>
                            <mxPoint x="20" y="650"/>
                            <mxPoint x="880" y="650"/>
                            <mxPoint x="880" y="335"/>
                        </Array>
                    </mxGeometry>
                </mxCell>
                <mxCell id="24" value="" style="endArrow=none;html=1;exitX=0;exitY=0.5;exitDx=0;exitDy=0;edgeStyle=orthogonalEdgeStyle;entryX=0;entryY=0.5;entryDx=0;entryDy=0;" parent="1" source="41" target="18" edge="1">
                    <mxGeometry width="50" height="50" relative="1" as="geometry">
                        <mxPoint x="100" y="335" as="sourcePoint"/>
                        <mxPoint x="370" y="270" as="targetPoint"/>
                        <Array as="points">
                            <mxPoint x="460" y="225"/>
                            <mxPoint x="460" y="50"/>
                            <mxPoint x="20" y="50"/>
                            <mxPoint x="20" y="135"/>
                        </Array>
                    </mxGeometry>
                </mxCell>
                <mxCell id="32" value="mem_aximo" style="rounded=0;whiteSpace=wrap;html=1;" parent="1" vertex="1">
                    <mxGeometry x="740" y="270" width="80" height="30" as="geometry"/>
                </mxCell>
                <mxCell id="33" value="" style="group" parent="1" vertex="1" connectable="0">
                    <mxGeometry x="1030" y="170" width="220" height="200" as="geometry"/>
                </mxCell>
                <mxCell id="34" value="AXI_MIG4_7" style="rounded=0;whiteSpace=wrap;html=1;verticalAlign=top;" parent="33" vertex="1">
                    <mxGeometry y="59.25925925925925" width="220" height="140.74074074074073" as="geometry"/>
                </mxCell>
                <mxCell id="35" value="aximo" style="rounded=0;whiteSpace=wrap;html=1;" parent="33" vertex="1">
                    <mxGeometry y="133.33333333333331" width="80" height="44.44444444444444" as="geometry"/>
                </mxCell>
                <mxCell id="36" value="DDR4" style="rounded=0;whiteSpace=wrap;html=1;" parent="33" vertex="1">
                    <mxGeometry x="140" y="133.33333333333331" width="80" height="44.44444444444444" as="geometry"/>
                </mxCell>
                <mxCell id="37" value="mig_gen.ddr4c" style="text;html=1;strokeColor=none;fillColor=none;align=center;verticalAlign=middle;whiteSpace=wrap;rounded=0;" parent="33" vertex="1">
                    <mxGeometry x="70" y="14.814814814814813" width="60" height="44.44444444444444" as="geometry"/>
                </mxCell>
                <mxCell id="43" value="aximi" style="rounded=0;whiteSpace=wrap;html=1;" vertex="1" parent="33">
                    <mxGeometry x="140" y="70.00333333333333" width="80" height="44.44444444444444" as="geometry"/>
                </mxCell>
                <mxCell id="38" value="" style="endArrow=none;html=1;entryX=0;entryY=0.5;entryDx=0;entryDy=0;exitX=1;exitY=0.5;exitDx=0;exitDy=0;fillColor=#008a00;strokeColor=#005700;strokeWidth=3;" parent="1" source="32" target="35" edge="1">
                    <mxGeometry width="50" height="50" relative="1" as="geometry">
                        <mxPoint x="640" y="330" as="sourcePoint"/>
                        <mxPoint x="690" y="280" as="targetPoint"/>
                    </mxGeometry>
                </mxCell>
                <mxCell id="39" value="nf2_phyo" style="rounded=0;whiteSpace=wrap;html=1;" vertex="1" parent="1">
                    <mxGeometry x="740" y="380" width="80" height="30" as="geometry"/>
                </mxCell>
                <mxCell id="40" value="mem_ahbsio" style="rounded=0;whiteSpace=wrap;html=1;" vertex="1" parent="1">
                    <mxGeometry x="730" y="470" width="90" height="30" as="geometry"/>
                </mxCell>
                <mxCell id="41" value="etho" style="rounded=0;whiteSpace=wrap;html=1;" vertex="1" parent="1">
                    <mxGeometry x="560" y="210" width="80" height="30" as="geometry"/>
                </mxCell>
                <mxCell id="42" value="nf2_phyi" style="rounded=0;whiteSpace=wrap;html=1;" vertex="1" parent="1">
                    <mxGeometry x="740" y="420" width="80" height="30" as="geometry"/>
                </mxCell>
                <mxCell id="44" value="mem_aximi" style="rounded=0;whiteSpace=wrap;html=1;" vertex="1" parent="1">
                    <mxGeometry x="740" y="210" width="80" height="30" as="geometry"/>
                </mxCell>
                <mxCell id="45" value="" style="endArrow=none;html=1;entryX=1;entryY=0.5;entryDx=0;entryDy=0;exitX=1;exitY=0.5;exitDx=0;exitDy=0;fillColor=#60a917;strokeColor=#2D7600;strokeWidth=3;edgeStyle=orthogonalEdgeStyle;" edge="1" parent="1" source="44" target="43">
                    <mxGeometry width="50" height="50" relative="1" as="geometry">
                        <mxPoint x="830" y="295" as="sourcePoint"/>
                        <mxPoint x="1040" y="335.55555555555543" as="targetPoint"/>
                        <Array as="points">
                            <mxPoint x="950" y="225"/>
                            <mxPoint x="950" y="190"/>
                            <mxPoint x="1310" y="190"/>
                            <mxPoint x="1310" y="262"/>
                        </Array>
                    </mxGeometry>
                </mxCell>
                <mxCell id="46" value="jtag_rv" style="rounded=0;whiteSpace=wrap;html=1;" vertex="1" parent="1">
                    <mxGeometry x="560" y="520" width="80" height="30" as="geometry"/>
                </mxCell>
                <mxCell id="47" value="mem_apbo0" style="rounded=0;whiteSpace=wrap;html=1;" vertex="1" parent="1">
                    <mxGeometry x="560" y="560" width="80" height="30" as="geometry"/>
                </mxCell>
                <mxCell id="48" value="" style="pointerEvents=1;verticalLabelPosition=bottom;shadow=0;dashed=0;align=center;html=1;verticalAlign=top;shape=mxgraph.electrical.signal_sources.protective_earth;" vertex="1" parent="1">
                    <mxGeometry x="480" y="590" width="25" height="20" as="geometry"/>
                </mxCell>
                <mxCell id="49" value="" style="endArrow=none;html=1;entryX=0;entryY=0.5;entryDx=0;entryDy=0;exitX=0.5;exitY=0;exitDx=0;exitDy=0;exitPerimeter=0;" edge="1" parent="1" source="48" target="14">
                    <mxGeometry width="50" height="50" relative="1" as="geometry">
                        <mxPoint x="490" y="580" as="sourcePoint"/>
                        <mxPoint x="570" y="445" as="targetPoint"/>
                        <Array as="points">
                            <mxPoint x="490" y="510"/>
                        </Array>
                    </mxGeometry>
                </mxCell>
                <mxCell id="50" value="" style="endArrow=none;html=1;entryX=0;entryY=0.5;entryDx=0;entryDy=0;exitX=0.5;exitY=0;exitDx=0;exitDy=0;exitPerimeter=0;" edge="1" parent="1" source="48" target="46">
                    <mxGeometry width="50" height="50" relative="1" as="geometry">
                        <mxPoint x="500" y="590" as="sourcePoint"/>
                        <mxPoint x="570" y="505" as="targetPoint"/>
                        <Array as="points">
                            <mxPoint x="500" y="520"/>
                        </Array>
                    </mxGeometry>
                </mxCell>
                <mxCell id="51" value="" style="endArrow=none;html=1;entryX=0;entryY=0.5;entryDx=0;entryDy=0;exitX=0.5;exitY=0;exitDx=0;exitDy=0;exitPerimeter=0;" edge="1" parent="1" source="48" target="47">
                    <mxGeometry width="50" height="50" relative="1" as="geometry">
                        <mxPoint x="499.5" y="590" as="sourcePoint"/>
                        <mxPoint x="570" y="545" as="targetPoint"/>
                        <Array as="points">
                            <mxPoint x="510" y="530"/>
                        </Array>
                    </mxGeometry>
                </mxCell>
                <mxCell id="54" value="ethi" style="rounded=0;whiteSpace=wrap;html=1;" vertex="1" parent="1">
                    <mxGeometry x="560" y="300" width="80" height="30" as="geometry"/>
                </mxCell>
                <mxCell id="55" value="" style="endArrow=none;html=1;exitX=1;exitY=0.5;exitDx=0;exitDy=0;entryX=0;entryY=0.5;entryDx=0;entryDy=0;edgeStyle=orthogonalEdgeStyle;" edge="1" parent="1" source="53" target="54">
                    <mxGeometry width="50" height="50" relative="1" as="geometry">
                        <mxPoint x="310" y="173.32999999999993" as="sourcePoint"/>
                        <mxPoint x="570" y="280" as="targetPoint"/>
                        <Array as="points">
                            <mxPoint x="390" y="220"/>
                            <mxPoint x="390" y="315"/>
                        </Array>
                    </mxGeometry>
                </mxCell>
            </root>
        </mxGraphModel>
    </diagram>
</mxfile>